<mxfile host="app.diagrams.net" modified="2023-09-23T05:33:16.749Z" agent="Mozilla/5.0 (Windows NT 10.0; Win64; x64) AppleWebKit/537.36 (KHTML, like Gecko) Chrome/116.0.0.0 Safari/537.36" etag="jhA0ALpFE54GZs1usCWM" version="21.8.0" type="device">
  <diagram name="Halaman-1" id="JgiNSeR_hWtjkRGS1Z4k">
    <mxGraphModel dx="1050" dy="566" grid="1" gridSize="10" guides="1" tooltips="1" connect="1" arrows="1" fold="1" page="1" pageScale="1" pageWidth="827" pageHeight="1169" math="0" shadow="0">
      <root>
        <mxCell id="0" />
        <mxCell id="1" parent="0" />
        <mxCell id="kEkWyRif2GkTLnnALOaA-17" style="edgeStyle=orthogonalEdgeStyle;rounded=0;orthogonalLoop=1;jettySize=auto;html=1;entryX=0.5;entryY=0;entryDx=0;entryDy=0;" parent="1" source="kEkWyRif2GkTLnnALOaA-1" target="kEkWyRif2GkTLnnALOaA-3" edge="1">
          <mxGeometry relative="1" as="geometry" />
        </mxCell>
        <mxCell id="kEkWyRif2GkTLnnALOaA-1" value="main" style="strokeWidth=2;html=1;shape=mxgraph.flowchart.terminator;whiteSpace=wrap;" parent="1" vertex="1">
          <mxGeometry x="370" y="90" width="100" height="60" as="geometry" />
        </mxCell>
        <mxCell id="kEkWyRif2GkTLnnALOaA-2" value="KALKULATOR SEDERHANA" style="text;html=1;strokeColor=none;fillColor=none;align=center;verticalAlign=middle;whiteSpace=wrap;rounded=0;" parent="1" vertex="1">
          <mxGeometry x="331" y="30" width="166" height="30" as="geometry" />
        </mxCell>
        <mxCell id="kEkWyRif2GkTLnnALOaA-18" style="edgeStyle=orthogonalEdgeStyle;rounded=0;orthogonalLoop=1;jettySize=auto;html=1;entryX=0.5;entryY=0;entryDx=0;entryDy=0;" parent="1" source="kEkWyRif2GkTLnnALOaA-3" target="kEkWyRif2GkTLnnALOaA-5" edge="1">
          <mxGeometry relative="1" as="geometry" />
        </mxCell>
        <mxCell id="kEkWyRif2GkTLnnALOaA-3" value="real a" style="shape=internalStorage;whiteSpace=wrap;html=1;dx=15;dy=15;rounded=1;arcSize=8;strokeWidth=2;" parent="1" vertex="1">
          <mxGeometry x="360" y="200" width="120" height="70" as="geometry" />
        </mxCell>
        <mxCell id="kEkWyRif2GkTLnnALOaA-19" style="edgeStyle=orthogonalEdgeStyle;rounded=0;orthogonalLoop=1;jettySize=auto;html=1;entryX=0.5;entryY=0;entryDx=0;entryDy=0;" parent="1" source="kEkWyRif2GkTLnnALOaA-5" target="kEkWyRif2GkTLnnALOaA-6" edge="1">
          <mxGeometry relative="1" as="geometry" />
        </mxCell>
        <mxCell id="kEkWyRif2GkTLnnALOaA-5" value="real b" style="shape=internalStorage;whiteSpace=wrap;html=1;dx=15;dy=15;rounded=1;arcSize=8;strokeWidth=2;" parent="1" vertex="1">
          <mxGeometry x="360" y="330" width="120" height="70" as="geometry" />
        </mxCell>
        <mxCell id="kEkWyRif2GkTLnnALOaA-20" style="edgeStyle=orthogonalEdgeStyle;rounded=0;orthogonalLoop=1;jettySize=auto;html=1;" parent="1" source="kEkWyRif2GkTLnnALOaA-6" edge="1">
          <mxGeometry relative="1" as="geometry">
            <mxPoint x="420" y="570" as="targetPoint" />
          </mxGeometry>
        </mxCell>
        <mxCell id="kEkWyRif2GkTLnnALOaA-6" value="input a" style="shape=parallelogram;html=1;strokeWidth=2;perimeter=parallelogramPerimeter;whiteSpace=wrap;rounded=1;arcSize=12;size=0.23;" parent="1" vertex="1">
          <mxGeometry x="350" y="460" width="140" height="60" as="geometry" />
        </mxCell>
        <mxCell id="kEkWyRif2GkTLnnALOaA-23" style="edgeStyle=orthogonalEdgeStyle;rounded=0;orthogonalLoop=1;jettySize=auto;html=1;entryX=0.5;entryY=0;entryDx=0;entryDy=0;" parent="1" source="kEkWyRif2GkTLnnALOaA-7" target="kEkWyRif2GkTLnnALOaA-8" edge="1">
          <mxGeometry relative="1" as="geometry" />
        </mxCell>
        <mxCell id="kEkWyRif2GkTLnnALOaA-7" value="input b" style="shape=parallelogram;html=1;strokeWidth=2;perimeter=parallelogramPerimeter;whiteSpace=wrap;rounded=1;arcSize=12;size=0.23;" parent="1" vertex="1">
          <mxGeometry x="340" y="570" width="140" height="60" as="geometry" />
        </mxCell>
        <mxCell id="z44gH5eTZ1UsoLKICVBo-1" style="edgeStyle=orthogonalEdgeStyle;rounded=0;orthogonalLoop=1;jettySize=auto;html=1;" parent="1" source="kEkWyRif2GkTLnnALOaA-8" target="kEkWyRif2GkTLnnALOaA-10" edge="1">
          <mxGeometry relative="1" as="geometry" />
        </mxCell>
        <mxCell id="kEkWyRif2GkTLnnALOaA-8" value="penjumlahan" style="shape=internalStorage;whiteSpace=wrap;html=1;dx=15;dy=15;rounded=1;arcSize=8;strokeWidth=2;" parent="1" vertex="1">
          <mxGeometry x="350" y="680" width="120" height="70" as="geometry" />
        </mxCell>
        <mxCell id="kEkWyRif2GkTLnnALOaA-26" value="" style="edgeStyle=orthogonalEdgeStyle;rounded=0;orthogonalLoop=1;jettySize=auto;html=1;" parent="1" source="kEkWyRif2GkTLnnALOaA-10" target="kEkWyRif2GkTLnnALOaA-11" edge="1">
          <mxGeometry relative="1" as="geometry" />
        </mxCell>
        <mxCell id="kEkWyRif2GkTLnnALOaA-10" value="pengurangan" style="shape=internalStorage;whiteSpace=wrap;html=1;dx=15;dy=15;rounded=1;arcSize=8;strokeWidth=2;" parent="1" vertex="1">
          <mxGeometry x="350" y="840" width="120" height="60" as="geometry" />
        </mxCell>
        <mxCell id="kEkWyRif2GkTLnnALOaA-27" value="" style="edgeStyle=orthogonalEdgeStyle;rounded=0;orthogonalLoop=1;jettySize=auto;html=1;" parent="1" source="kEkWyRif2GkTLnnALOaA-11" target="kEkWyRif2GkTLnnALOaA-12" edge="1">
          <mxGeometry relative="1" as="geometry" />
        </mxCell>
        <mxCell id="kEkWyRif2GkTLnnALOaA-11" value="perkalian" style="shape=internalStorage;whiteSpace=wrap;html=1;dx=15;dy=15;rounded=1;arcSize=8;strokeWidth=2;" parent="1" vertex="1">
          <mxGeometry x="350" y="1000" width="120" height="70" as="geometry" />
        </mxCell>
        <mxCell id="kEkWyRif2GkTLnnALOaA-28" value="" style="edgeStyle=orthogonalEdgeStyle;rounded=0;orthogonalLoop=1;jettySize=auto;html=1;" parent="1" source="kEkWyRif2GkTLnnALOaA-12" target="kEkWyRif2GkTLnnALOaA-13" edge="1">
          <mxGeometry relative="1" as="geometry" />
        </mxCell>
        <mxCell id="kEkWyRif2GkTLnnALOaA-12" value="pembagian" style="shape=internalStorage;whiteSpace=wrap;html=1;dx=15;dy=15;rounded=1;arcSize=8;strokeWidth=2;" parent="1" vertex="1">
          <mxGeometry x="350" y="1160" width="120" height="70" as="geometry" />
        </mxCell>
        <mxCell id="kEkWyRif2GkTLnnALOaA-29" style="edgeStyle=orthogonalEdgeStyle;rounded=0;orthogonalLoop=1;jettySize=auto;html=1;" parent="1" source="kEkWyRif2GkTLnnALOaA-13" target="kEkWyRif2GkTLnnALOaA-14" edge="1">
          <mxGeometry relative="1" as="geometry" />
        </mxCell>
        <mxCell id="kEkWyRif2GkTLnnALOaA-13" value="a+b" style="rounded=1;whiteSpace=wrap;html=1;fontStyle=0" parent="1" vertex="1">
          <mxGeometry x="350" y="1280" width="120" height="60" as="geometry" />
        </mxCell>
        <mxCell id="kEkWyRif2GkTLnnALOaA-30" value="" style="edgeStyle=orthogonalEdgeStyle;rounded=0;orthogonalLoop=1;jettySize=auto;html=1;" parent="1" source="kEkWyRif2GkTLnnALOaA-14" target="kEkWyRif2GkTLnnALOaA-15" edge="1">
          <mxGeometry relative="1" as="geometry" />
        </mxCell>
        <mxCell id="kEkWyRif2GkTLnnALOaA-14" value="a-b" style="rounded=1;whiteSpace=wrap;html=1;fontStyle=0" parent="1" vertex="1">
          <mxGeometry x="350" y="1390" width="120" height="60" as="geometry" />
        </mxCell>
        <mxCell id="kEkWyRif2GkTLnnALOaA-31" value="" style="edgeStyle=orthogonalEdgeStyle;rounded=0;orthogonalLoop=1;jettySize=auto;html=1;" parent="1" source="kEkWyRif2GkTLnnALOaA-15" target="kEkWyRif2GkTLnnALOaA-16" edge="1">
          <mxGeometry relative="1" as="geometry" />
        </mxCell>
        <mxCell id="kEkWyRif2GkTLnnALOaA-15" value="a*b" style="rounded=1;whiteSpace=wrap;html=1;fontStyle=0" parent="1" vertex="1">
          <mxGeometry x="350" y="1500" width="120" height="60" as="geometry" />
        </mxCell>
        <mxCell id="kEkWyRif2GkTLnnALOaA-36" style="edgeStyle=orthogonalEdgeStyle;rounded=0;orthogonalLoop=1;jettySize=auto;html=1;entryX=0.5;entryY=0;entryDx=0;entryDy=0;" parent="1" source="kEkWyRif2GkTLnnALOaA-16" target="kEkWyRif2GkTLnnALOaA-32" edge="1">
          <mxGeometry relative="1" as="geometry" />
        </mxCell>
        <mxCell id="kEkWyRif2GkTLnnALOaA-16" value="a/b" style="rounded=1;whiteSpace=wrap;html=1;fontStyle=0" parent="1" vertex="1">
          <mxGeometry x="350" y="1610" width="120" height="60" as="geometry" />
        </mxCell>
        <mxCell id="kEkWyRif2GkTLnnALOaA-37" value="" style="edgeStyle=orthogonalEdgeStyle;rounded=0;orthogonalLoop=1;jettySize=auto;html=1;" parent="1" source="kEkWyRif2GkTLnnALOaA-32" target="kEkWyRif2GkTLnnALOaA-35" edge="1">
          <mxGeometry relative="1" as="geometry" />
        </mxCell>
        <mxCell id="kEkWyRif2GkTLnnALOaA-32" value="output a+b" style="shape=parallelogram;html=1;strokeWidth=2;perimeter=parallelogramPerimeter;whiteSpace=wrap;rounded=1;arcSize=12;size=0.23;" parent="1" vertex="1">
          <mxGeometry x="325" y="1710" width="170" height="60" as="geometry" />
        </mxCell>
        <mxCell id="kEkWyRif2GkTLnnALOaA-40" value="" style="edgeStyle=orthogonalEdgeStyle;rounded=0;orthogonalLoop=1;jettySize=auto;html=1;" parent="1" source="kEkWyRif2GkTLnnALOaA-33" target="kEkWyRif2GkTLnnALOaA-39" edge="1">
          <mxGeometry relative="1" as="geometry" />
        </mxCell>
        <mxCell id="kEkWyRif2GkTLnnALOaA-33" value="output a/b" style="shape=parallelogram;html=1;strokeWidth=2;perimeter=parallelogramPerimeter;whiteSpace=wrap;rounded=1;arcSize=12;size=0.23;" parent="1" vertex="1">
          <mxGeometry x="325" y="2060" width="170" height="60" as="geometry" />
        </mxCell>
        <mxCell id="z44gH5eTZ1UsoLKICVBo-2" value="" style="edgeStyle=orthogonalEdgeStyle;rounded=0;orthogonalLoop=1;jettySize=auto;html=1;" parent="1" source="kEkWyRif2GkTLnnALOaA-34" target="kEkWyRif2GkTLnnALOaA-33" edge="1">
          <mxGeometry relative="1" as="geometry" />
        </mxCell>
        <mxCell id="kEkWyRif2GkTLnnALOaA-34" value="output a*b" style="shape=parallelogram;html=1;strokeWidth=2;perimeter=parallelogramPerimeter;whiteSpace=wrap;rounded=1;arcSize=12;size=0.23;" parent="1" vertex="1">
          <mxGeometry x="325" y="1950" width="170" height="60" as="geometry" />
        </mxCell>
        <mxCell id="kEkWyRif2GkTLnnALOaA-38" value="" style="edgeStyle=orthogonalEdgeStyle;rounded=0;orthogonalLoop=1;jettySize=auto;html=1;" parent="1" source="kEkWyRif2GkTLnnALOaA-35" target="kEkWyRif2GkTLnnALOaA-34" edge="1">
          <mxGeometry relative="1" as="geometry" />
        </mxCell>
        <mxCell id="kEkWyRif2GkTLnnALOaA-35" value="output a-b" style="shape=parallelogram;html=1;strokeWidth=2;perimeter=parallelogramPerimeter;whiteSpace=wrap;rounded=1;arcSize=12;size=0.23;" parent="1" vertex="1">
          <mxGeometry x="325" y="1830" width="170" height="60" as="geometry" />
        </mxCell>
        <mxCell id="kEkWyRif2GkTLnnALOaA-39" value="end" style="strokeWidth=2;html=1;shape=mxgraph.flowchart.terminator;whiteSpace=wrap;" parent="1" vertex="1">
          <mxGeometry x="360" y="2160" width="100" height="60" as="geometry" />
        </mxCell>
      </root>
    </mxGraphModel>
  </diagram>
</mxfile>
